<?xml version="1.0" standalone="no"?>
<!DOCTYPE svg PUBLIC "-//W3C//DTD SVG 20010904//EN"
 "http://www.w3.org/TR/2001/REC-SVG-20010904/DTD/svg10.dtd">
<svg version="1.0" xmlns="http://www.w3.org/2000/svg"
 width="569.000000pt" height="330.000000pt" viewBox="0 0 569.000000 330.000000"
 preserveAspectRatio="xMidYMid meet">

<g transform="translate(0.000000,330.000000) scale(0.100000,-0.100000)"
fill="#000000" stroke="none">
<path d="M425 3294 c-217 -34 -346 -147 -402 -354 -17 -60 -18 -131 -18 -895
0 -758 2 -836 18 -898 66 -258 253 -370 587 -354 286 15 418 109 482 345 18
67 22 114 26 350 l4 272 -238 -2 -239 -3 -5 -278 -5 -279 -28 -24 c-35 -30
-59 -30 -94 0 l-28 24 -3 829 c-2 455 0 843 3 861 3 18 15 42 26 53 23 23 81
25 103 3 9 -8 17 -16 18 -17 1 -1 5 -114 8 -252 l5 -250 239 -3 239 -2 -6 227
c-6 303 -32 404 -129 509 -87 95 -201 134 -398 139 -74 2 -148 1 -165 -1z"/>
<path d="M1626 3285 c-112 -22 -186 -58 -245 -119 -59 -63 -83 -109 -113 -213
l-23 -78 0 -825 c0 -776 1 -829 19 -895 70 -262 216 -359 536 -359 314 0 453
89 527 339 16 55 18 131 21 870 3 716 1 821 -13 902 -48 268 -191 378 -505
388 -85 3 -150 0 -204 -10z m234 -357 c20 -32 20 -49 18 -881 l-3 -849 -28
-24 c-15 -13 -34 -24 -42 -24 -28 0 -64 23 -74 49 -8 18 -11 282 -9 874 l3
849 24 19 c13 10 39 19 57 19 28 0 38 -6 54 -32z"/>
<path d="M2470 3075 l0 -175 223 -2 224 -3 -223 -840 -224 -840 3 -185 2 -185
470 0 470 0 3 183 2 182 -235 0 c-129 0 -235 2 -235 6 0 3 104 398 230 879
l230 874 0 141 0 140 -470 0 -470 0 0 -175z"/>
<path d="M3524 3233 c3 -10 83 -335 178 -723 l172 -705 6 -480 5 -480 235 0
235 0 5 475 5 475 177 705 c98 388 180 715 183 728 l5 22 -214 0 -215 0 -10
-52 c-27 -134 -92 -550 -111 -708 -31 -249 -36 -246 -61 32 -10 112 -38 320
-62 463 l-42 260 -248 3 c-234 2 -248 1 -243 -15z"/>
<path d="M5285 3241 c-95 -25 -172 -88 -216 -176 -29 -60 -31 -70 -27 -147 7
-129 62 -214 175 -270 58 -28 77 -33 143 -33 123 1 227 61 284 164 111 206
-26 452 -260 466 -38 2 -82 1 -99 -4z m202 -67 c137 -65 191 -225 122 -362
-123 -247 -498 -182 -526 91 -22 218 201 367 404 271z"/>
<path d="M5210 2916 l0 -186 30 0 30 0 0 80 0 80 35 0 c40 0 59 -18 109 -102
27 -44 37 -54 64 -56 44 -4 42 12 -13 94 l-45 67 32 28 c29 23 33 33 33 73 0
36 -5 51 -28 73 -26 26 -33 28 -137 31 l-110 4 0 -186z m198 112 c17 -17 15
-53 -3 -68 -8 -7 -41 -13 -73 -14 l-57 -1 -3 48 -3 47 63 0 c37 0 69 -5 76
-12z"/>
<path d="M2715 500 c-95 -31 -128 -138 -64 -206 23 -24 64 -42 162 -69 67 -18
97 -44 97 -83 0 -42 -39 -74 -98 -80 -68 -6 -120 19 -141 70 -13 31 -21 38
-43 38 -35 0 -37 -24 -8 -80 29 -56 86 -84 170 -84 115 0 180 53 180 146 0 79
-37 110 -175 147 -91 25 -115 42 -115 82 0 42 41 69 104 69 59 0 88 -16 106
-60 10 -24 19 -30 41 -30 19 0 29 5 29 15 0 31 -39 90 -70 109 -37 21 -132 30
-175 16z"/>
<path d="M3186 495 c-81 -29 -135 -109 -144 -212 -13 -162 80 -277 223 -277
91 0 157 40 201 124 29 53 27 200 -3 256 -55 104 -168 148 -277 109z m161 -65
c50 -30 75 -89 75 -177 -1 -61 -5 -82 -26 -117 -32 -55 -81 -80 -146 -74 -94
9 -140 73 -140 195 0 91 18 135 70 171 43 29 121 30 167 2z"/>
<path d="M4454 500 c-18 -6 -46 -26 -63 -45 -25 -28 -31 -45 -31 -80 0 -66 33
-99 131 -130 44 -14 86 -25 93 -25 7 0 25 -9 40 -21 32 -25 36 -79 7 -108 -59
-59 -206 -23 -225 54 -5 20 -13 25 -37 25 -30 0 -31 -1 -25 -32 13 -70 77
-123 160 -133 103 -13 182 30 206 112 11 36 10 46 -6 79 -26 52 -57 72 -160
101 -100 28 -124 44 -124 84 0 43 41 69 107 69 47 0 59 -4 84 -29 16 -16 29
-37 29 -45 0 -11 9 -16 31 -16 30 0 31 1 25 32 -9 44 -31 75 -68 94 -38 20
-131 27 -174 14z"/>
<path d="M2 258 l3 -243 33 -3 32 -3 0 245 0 246 -35 0 -35 0 2 -242z"/>
<path d="M140 470 l0 -30 80 0 80 0 0 -215 0 -215 30 0 30 0 0 215 0 214 78 3
c76 3 77 3 80 31 l3 27 -190 0 -191 0 0 -30z"/>
<path d="M651 478 c-4 -13 -42 -115 -84 -228 -41 -113 -79 -213 -82 -222 -6
-15 -1 -18 26 -18 33 0 35 2 60 73 l25 72 100 3 99 3 26 -73 c26 -72 27 -73
64 -76 28 -3 36 0 32 10 -3 7 -46 118 -97 246 l-92 232 -34 0 c-27 0 -36 -5
-43 -22z m119 -260 c0 -4 -34 -8 -75 -8 -41 0 -75 2 -75 6 0 3 17 54 37 115
l37 109 38 -107 c21 -58 38 -110 38 -115z"/>
<path d="M970 255 l0 -245 145 0 145 0 0 30 0 30 -115 0 -115 0 0 215 0 215
-30 0 -30 0 0 -245z"/>
<path d="M1350 255 l0 -245 30 0 30 0 0 245 0 245 -30 0 -30 0 0 -245z"/>
<path d="M1645 488 c-3 -7 -43 -116 -90 -242 -47 -126 -85 -231 -85 -233 0 -1
15 -3 33 -3 31 0 33 2 57 73 l25 72 100 3 100 3 26 -73 c25 -71 27 -73 62 -76
37 -3 37 -3 27 25 -6 15 -50 126 -97 246 l-85 217 -34 0 c-19 0 -37 -6 -39
-12z m115 -270 c0 -5 -34 -8 -75 -8 -41 0 -75 3 -75 7 0 3 17 55 37 115 l37
108 38 -107 c21 -60 38 -111 38 -115z"/>
<path d="M1960 255 l0 -245 30 0 30 0 2 189 3 189 120 -189 c115 -181 121
-188 153 -189 l32 0 0 245 0 245 -30 0 -30 0 -2 -187 -3 -187 -120 187 c-115
180 -121 187 -152 187 l-33 0 0 -245z"/>
<path d="M3570 255 l0 -245 35 0 35 0 0 110 0 110 110 0 110 0 0 30 0 30 -110
0 -110 0 0 75 0 75 125 0 125 0 0 30 0 30 -160 0 -160 0 0 -245z"/>
<path d="M4045 483 c-3 -10 -31 -83 -60 -163 -29 -80 -67 -182 -84 -227 l-30
-83 33 0 c34 0 35 1 58 73 l25 72 101 3 c97 3 101 2 107 -20 4 -13 16 -47 27
-75 18 -50 21 -53 54 -53 29 0 34 3 30 18 -4 9 -46 118 -95 242 l-89 225 -35
3 c-26 2 -36 -1 -42 -15z m115 -260 c0 -9 -22 -13 -76 -13 -57 0 -75 3 -71 12
2 7 19 59 38 115 l33 103 38 -103 c21 -56 38 -108 38 -114z"/>
</g>
</svg>
