<svg width="284" height="156" viewBox="0 0 284 156" fill="none" xmlns="http://www.w3.org/2000/svg" class="u-hide-until-desktop" data-webid="header-logo">
  <path fill-rule="evenodd" clip-rule="evenodd" d="M106.661 53.363L127.761 29.9055L132.713 34.3598L111.612 57.8172L106.661 53.363ZM144.7 29.9192L123.603 53.3766L128.555 57.8302L149.652 34.3727L144.7 29.9192ZM161.64 29.9204L140.543 53.3778L145.495 57.8314L166.592 34.374L161.64 29.9204Z" fill="#EC008C"></path>
  <path fill-rule="evenodd" clip-rule="evenodd" d="M57.6 88.56C57.6 85.9 56.97 83.52 55.72 81.47C54.47 79.42 52.77 77.82 50.67 76.71C48.56 75.6 46.16 75.03 43.54 75.03C40.83 75.03 38.37 75.66 36.23 76.89C34.09 78.13 32.41 79.79 31.24 81.83C30.07 83.87 29.48 86.14 29.48 88.56C29.48 91.22 30.11 93.6 31.36 95.66C32.61 97.71 34.31 99.31 36.41 100.42C38.52 101.53 40.92 102.1 43.54 102.1C45.78 102.1 47.85 101.66 49.71 100.82L52.29 103.87L56.27 100.5L53.98 97.79C54.7 97.04 55.33 96.21 55.85 95.3C57.01 93.25 57.6 90.99 57.6 88.56ZM46.76 89.25L42.78 92.62L45.81 96.21C45.1 96.43 44.34 96.55 43.54 96.55C42.06 96.55 40.74 96.19 39.61 95.49C38.48 94.78 37.6 93.81 36.99 92.6C36.39 91.4 36.08 90.03 36.08 88.54C36.08 86.98 36.41 85.58 37.06 84.38C37.72 83.18 38.61 82.24 39.73 81.58C40.85 80.92 42.13 80.59 43.53 80.59C45.01 80.59 46.33 80.95 47.46 81.65C48.59 82.36 49.47 83.33 50.08 84.54C50.68 85.75 50.99 87.11 50.99 88.6C50.99 90.16 50.66 91.56 50.01 92.76C49.99 92.795 49.97 92.8274 49.9501 92.8599L49.95 92.86C49.93 92.8925 49.91 92.925 49.89 92.96L46.76 89.25ZM85.47 126C82.56 126 80.13 123.98 80.13 120.66C80.13 117.35 82.56 115.32 85.47 115.32C88.38 115.32 90.81 117.35 90.81 120.66C90.81 123.97 88.38 126 85.47 126ZM85.47 116.58C83.36 116.58 81.62 118.09 81.62 120.63C81.62 123.15 83.37 124.68 85.47 124.68C87.59 124.68 89.33 123.15 89.33 120.63C89.32 118.09 87.58 116.58 85.47 116.58ZM63.49 120.13V116.68V116.67H67.78V115.46H62.03V125.81H63.49V121.34H67.53V120.13H63.49ZM72.07 115.47V125.82H77.17V124.59H73.53V115.47H72.07ZM94.54 120.66C94.54 123.98 96.97 126 99.88 126C102.79 126 105.22 123.97 105.22 120.66C105.22 117.35 102.79 115.32 99.88 115.32C96.97 115.32 94.54 117.35 94.54 120.66ZM96.03 120.63C96.03 118.09 97.77 116.58 99.88 116.58C102 116.58 103.74 118.09 103.74 120.63C103.74 123.15 102 124.68 99.88 124.68C97.78 124.68 96.03 123.15 96.03 120.63ZM114.81 125.82L112.11 121.36H111V125.82H109.54V115.47H112.46C114.31 115.47 115.96 116.33 115.96 118.38C115.96 120.19 114.7 121.01 113.61 121.21L116.57 125.81H114.81V125.82ZM113.8 117.03C113.34 116.69 112.78 116.65 112.06 116.65H111V120.16H112.07C112.79 120.16 113.34 120.13 113.81 119.8C114.28 119.46 114.47 119.04 114.47 118.4C114.46 117.79 114.27 117.36 113.8 117.03ZM125.88 125.82H129C132.1 125.82 134.47 123.85 134.47 120.64C134.47 117.43 132.1 115.47 129 115.47H125.88V125.82ZM127.33 116.71H129C131.34 116.71 132.99 118.24 132.99 120.63C132.99 123.02 131.34 124.55 129 124.55H127.33V116.71ZM138.79 115.47H144.85V116.68H140.24V119.77H144.59V121H140.24V124.58H144.96V125.81H138.79V115.47ZM148.76 124.26C149.25 124.83 150.29 126 152.1 126C153.91 126 155.71 124.95 155.73 122.93C155.73 121.7 154.99 120.85 153.93 120.35L152.02 119.56C151.4 119.3 150.69 118.94 150.69 117.98C150.69 117.02 151.47 116.54 152.49 116.54C153.51 116.54 154.26 117.11 154.77 117.65L155.53 116.66L155.501 116.631C155.179 116.307 154.208 115.33 152.56 115.33C150.91 115.33 149.23 116.25 149.23 118.09C149.23 119.31 149.88 120.13 150.94 120.63C151.33 120.82 152.05 121.11 152.59 121.32L152.654 121.346C153.2 121.564 154.27 121.993 154.27 123.03C154.27 124.12 153.38 124.77 152.25 124.77C151.12 124.77 150.14 123.99 149.62 123.28L148.76 124.26ZM160.02 125.82V115.47H161.48V125.82H160.02ZM165.79 120.65C165.79 123.87 168.11 126 171.07 126C173.822 126 175.102 124.694 175.418 124.372C175.44 124.35 175.457 124.332 175.47 124.32V120.3H171.27V121.48H174.06V123.77C174.06 123.77 173.29 124.72 171.15 124.72C168.99 124.72 167.29 123.19 167.29 120.64C167.29 118.09 168.92 116.56 171.05 116.56C172.67 116.56 173.63 117.31 174.25 118.03L175.24 117.12C175.211 117.091 175.177 117.056 175.14 117.016C174.665 116.522 173.514 115.32 171.05 115.32C168.12 115.32 165.79 117.43 165.79 120.65ZM187.44 125.82L181.47 117.57C181.47 117.57 181.5 118.97 181.5 120.32V125.82H180.06V115.47H181.59L187.45 123.6C187.45 123.6 187.44 122.32 187.44 120.96V115.47H188.86V125.82H187.44ZM199.84 115.47H193.78V125.81H199.95V124.58H195.23V121H199.58V119.77H195.23V116.68H199.84V115.47ZM209.64 125.82L206.94 121.36H205.83V125.82H204.37V115.47H207.29C209.14 115.47 210.79 116.33 210.79 118.38C210.79 120.19 209.53 121.01 208.44 121.21L211.39 125.81H209.64V125.82ZM208.63 117.03C208.17 116.69 207.61 116.65 206.89 116.65H205.82V120.16H206.89C207.61 120.16 208.16 120.13 208.63 119.8C209.1 119.46 209.29 119.04 209.29 118.4C209.29 117.79 209.1 117.36 208.63 117.03ZM214.47 124.26C214.96 124.83 216 126 217.81 126C219.63 126 221.43 124.95 221.44 122.93C221.44 121.7 220.7 120.85 219.64 120.35L217.73 119.56C217.11 119.3 216.4 118.94 216.4 117.98C216.4 117.02 217.18 116.54 218.2 116.54C219.22 116.54 219.97 117.11 220.48 117.65L221.24 116.66L221.211 116.631C220.889 116.307 219.918 115.33 218.27 115.33C216.62 115.33 214.94 116.25 214.94 118.09C214.94 119.31 215.59 120.13 216.65 120.63C217.04 120.82 217.76 121.11 218.3 121.32L218.364 121.346C218.91 121.564 219.98 121.993 219.98 123.03C219.98 124.12 219.09 124.77 217.96 124.77C216.83 124.77 215.85 123.99 215.33 123.28L214.47 124.26ZM73.19 96.55C76.84 96.55 78.69 94.3 78.69 89.86V75.6H85.12V90.36C85.12 94.12 84.09 97.05 82.05 99.07C80.01 101.09 77.03 102.11 73.19 102.11C69.4 102.11 66.44 101.09 64.39 99.07C62.34 97.06 61.3 94.13 61.3 90.36V75.6H67.73V89.87C67.73 92.08 68.19 93.76 69.08 94.86C69.99 95.98 71.37 96.55 73.19 96.55ZM96.73 75.58H90.3V101.54H96.73V75.58ZM120.3 95.5V101.16C120.08 101.22 119.85 101.28 119.61 101.34C118.04 101.73 116.46 101.93 114.91 101.93C112.08 101.93 109.58 101.4 107.48 100.35C105.39 99.31 103.74 97.78 102.59 95.79C101.44 93.8 100.85 91.39 100.85 88.64C100.85 86.77 101.17 85.01 101.81 83.4C102.44 81.8 103.38 80.36 104.62 79.14C105.85 77.91 107.38 76.94 109.15 76.25C110.93 75.55 112.92 75.2 115.09 75.2C116.6 75.2 118.11 75.38 119.6 75.75C119.84 75.81 120.07 75.87 120.3 75.94V81.56C119.9 81.43 119.5 81.31 119.09 81.21C117.89 80.91 116.68 80.76 115.52 80.76C113.07 80.76 111.09 81.47 109.65 82.88C108.2 84.29 107.47 86.21 107.47 88.6C107.47 90.99 108.2 92.9 109.65 94.29C111.09 95.67 113.09 96.37 115.59 96.37C116.71 96.37 117.97 96.18 119.33 95.8C119.66 95.71 119.98 95.61 120.3 95.5ZM148.2 75.59H140.66L131.1 86.86V75.59H124.77V101.54H131.1V89.76L141.05 101.54H149.29L137.08 87.95L148.2 75.59ZM188.51 80.62H180.36V75.59H203.09V80.62H194.94V101.54H188.51V80.62ZM212.27 90.91H222.19V86.02H212.27V80.55H223.31V75.59H206.22V101.54H223.8V96.58H212.27V90.91ZM237.5 75.59C240.6 75.59 243.08 76.38 244.88 77.94C246.66 79.49 247.57 81.64 247.57 84.34C247.57 87.08 246.67 89.25 244.91 90.8C243.14 92.36 240.63 93.15 237.46 93.15H234.31V101.55H228.23V75.59H237.5ZM234.31 88.46H236.48C239.78 88.46 241.45 87.07 241.45 84.33C241.45 82.98 241.03 81.95 240.18 81.27C239.35 80.61 238.11 80.27 236.48 80.27H234.31V88.46ZM176.4 88.5C175.57 87.69 174.36 86.99 172.79 86.41C172.36 86.24 171.67 85.98 170.95 85.71L170.88 85.69C170.2 85.44 169.43 85.15 168.87 84.93C167.54 84.42 166.24 83.79 166.24 82.31C166.24 80.22 168.6 79.99 169.62 79.99C171.5 79.99 173.82 81.04 175.4 82.6L175.47 82.67L178.12 78.32L178.08 78.28C176.2 76.42 172.71 75.07 169.77 75.07C166.9 75.07 164.44 75.81 162.85 77.16C161.82 78.01 160.1 79.88 160.1 82.92C160.1 85.04 160.77 86.7 162.16 87.99C163.14 88.94 164.29 89.45 164.97 89.75L165.29 89.9C165.95 90.18 167.29 90.67 168.19 90.99L168.43 91.08C168.613 91.1469 168.791 91.2102 168.96 91.2697L168.961 91.27C169.069 91.3082 169.172 91.3448 169.27 91.38L169.31 91.4L169.318 91.4028C170.518 91.8428 172.32 92.5037 172.32 94.24C172.32 95.86 170.96 96.9 168.86 96.9C166.81 96.9 163.9 95.5 162.09 93.65L162.02 93.58L158.94 98.12L158.99 98.17C160.27 99.35 163.74 102.1 168.28 102.1C171.19 102.1 173.59 101.37 175.39 99.93C177.35 98.4 178.48 96.11 178.48 93.64C178.48 91.64 177.79 89.94 176.42 88.57L176.4 88.5ZM154.85 87.91C154.85 89.6939 153.404 91.14 151.62 91.14C149.836 91.14 148.39 89.6939 148.39 87.91C148.39 86.1261 149.836 84.68 151.62 84.68C153.404 84.68 154.85 86.1261 154.85 87.91ZM252.57 77.37C252.57 76.86 252.17 76.58 251.72 76.58L250.78 76.57V79.29H251.2V78.16H251.54L252.19 79.29H252.7L251.97 78.12C252.22 78.07 252.57 77.88 252.57 77.37ZM251.57 77.82H251.21V76.94H251.57C251.86 76.94 252.14 77.02 252.14 77.38C252.13 77.73 251.86 77.82 251.57 77.82ZM249.29 77.94C249.29 76.62 250.32 75.59 251.64 75.59C252.95 75.59 253.99 76.62 253.99 77.94C253.99 79.26 252.95 80.29 251.64 80.29C250.32 80.29 249.29 79.26 249.29 77.94ZM249.6 77.93C249.6 79.06 250.51 79.97 251.64 79.97C252.76 79.98 253.68 79.06 253.68 77.93C253.68 76.8 252.76 75.89 251.64 75.89C250.51 75.89 249.6 76.8 249.6 77.93Z" fill="#134395"></path>
</svg>